# https://github.com/mikedh/trimesh
v 0.00000000 0.00000000 0.00000000
v 0.00000000 0.00000000 0.13000000
v 0.00000000 0.08000000 0.00000000
v 0.00000000 0.08000000 0.13000000
v -0.00000000 -0.08000000 0.00000000
v -0.00000000 -0.08000000 0.13000000
v 0.08000000 0.00000000 0.00000000
v 0.08000000 0.00000000 0.13000000
v -0.08000000 0.00000000 0.00000000
v -0.08000000 0.00000000 0.13000000
v 0.05656854 0.05656854 0.00000000
v 0.05656854 0.05656854 0.13000000
v 0.05656854 -0.05656854 0.00000000
v 0.05656854 -0.05656854 0.13000000
v -0.03061467 0.07391036 0.00000000
v -0.03061467 0.07391036 0.13000000
v -0.03061467 -0.07391036 0.00000000
v -0.03061467 -0.07391036 0.13000000
v 0.07391036 -0.03061467 0.00000000
v 0.07391036 -0.03061467 0.13000000
v 0.07391036 0.03061467 0.00000000
v 0.07391036 0.03061467 0.13000000
v -0.07391036 -0.03061467 0.00000000
v -0.07391036 -0.03061467 0.13000000
v -0.07391036 0.03061467 0.00000000
v -0.07391036 0.03061467 0.13000000
v 0.03061467 0.07391036 0.00000000
v 0.03061467 0.07391036 0.13000000
v 0.03061467 -0.07391036 0.00000000
v 0.03061467 -0.07391036 0.13000000
v -0.05656854 0.05656854 0.00000000
v -0.05656854 0.05656854 0.13000000
v -0.05656854 -0.05656854 0.00000000
v -0.05656854 -0.05656854 0.13000000
v 0.00000000 0.00000000 0.01000000
v 0.00000000 0.00000000 0.00000000
v 0.00000000 0.09000000 0.01000000
v 0.00000000 0.09000000 0.00000000
v -0.00000000 -0.09000000 0.01000000
v -0.00000000 -0.09000000 0.00000000
v 0.08314916 -0.03444151 0.01000000
v 0.08314916 -0.03444151 0.00000000
v 0.08314916 0.03444151 0.01000000
v 0.08314916 0.03444151 0.00000000
v 0.06363961 0.06363961 0.01000000
v 0.06363961 0.06363961 0.00000000
v 0.06363961 -0.06363961 0.01000000
v 0.06363961 -0.06363961 0.00000000
v 0.09000000 0.00000000 0.01000000
v 0.09000000 0.00000000 0.00000000
v -0.03444151 0.08314916 0.01000000
v -0.03444151 0.08314916 0.00000000
v -0.03444151 -0.08314916 0.01000000
v -0.03444151 -0.08314916 0.00000000
v 0.03444151 0.08314916 0.01000000
v 0.03444151 0.08314916 0.00000000
v 0.03444151 -0.08314916 0.01000000
v 0.03444151 -0.08314916 0.00000000
v -0.09000000 0.00000000 0.01000000
v -0.09000000 0.00000000 0.00000000
v -0.06363961 0.06363961 0.01000000
v -0.06363961 0.06363961 0.00000000
v -0.06363961 -0.06363961 0.01000000
v -0.06363961 -0.06363961 0.00000000
v -0.08314916 -0.03444151 0.01000000
v -0.08314916 -0.03444151 0.00000000
v -0.08314916 0.03444151 0.01000000
v -0.08314916 0.03444151 0.00000000
v 0.00000000 0.00000000 0.13250000
v 0.00000000 0.00000000 0.13750000
v -0.00000000 -0.07500000 0.13250000
v -0.00000000 -0.07500000 0.13750000
v 0.00000000 0.07500000 0.13250000
v 0.00000000 0.07500000 0.13750000
v 0.05303301 0.05303301 0.13250000
v 0.05303301 0.05303301 0.13750000
v 0.05303301 -0.05303301 0.13250000
v 0.05303301 -0.05303301 0.13750000
v -0.07500000 0.00000000 0.13250000
v -0.07500000 0.00000000 0.13750000
v -0.06929096 0.02870126 0.13250000
v -0.06929096 0.02870126 0.13750000
v -0.06929096 -0.02870126 0.13250000
v -0.06929096 -0.02870126 0.13750000
v 0.02870126 -0.06929096 0.13250000
v 0.02870126 -0.06929096 0.13750000
v 0.02870126 0.06929096 0.13250000
v 0.02870126 0.06929096 0.13750000
v -0.02870126 -0.06929096 0.13250000
v -0.02870126 -0.06929096 0.13750000
v -0.02870126 0.06929096 0.13250000
v -0.02870126 0.06929096 0.13750000
v 0.06929096 0.02870126 0.13250000
v 0.06929096 0.02870126 0.13750000
v 0.06929096 -0.02870126 0.13250000
v 0.06929096 -0.02870126 0.13750000
v 0.07500000 0.00000000 0.13250000
v 0.07500000 0.00000000 0.13750000
v -0.05303301 0.05303301 0.13250000
v -0.05303301 0.05303301 0.13750000
v -0.05303301 -0.05303301 0.13250000
v -0.05303301 -0.05303301 0.13750000
v 0.08250000 -0.03000000 0.06000000
v 0.08250000 -0.03000000 0.10000000
v 0.08250000 0.03000000 0.06000000
v 0.08250000 0.03000000 0.10000000
v 0.09750000 -0.03000000 0.06000000
v 0.09750000 -0.03000000 0.10000000
v 0.09750000 0.03000000 0.06000000
v 0.09750000 0.03000000 0.10000000
f 7 1 21
f 7 21 8
f 8 21 22
f 8 22 2
f 21 1 11
f 21 11 22
f 22 11 12
f 22 12 2
f 11 1 27
f 11 27 12
f 12 27 28
f 12 28 2
f 27 1 3
f 27 3 28
f 28 3 4
f 28 4 2
f 3 1 15
f 3 15 4
f 4 15 16
f 4 16 2
f 15 1 31
f 15 31 16
f 16 31 32
f 16 32 2
f 31 1 25
f 31 25 32
f 32 25 26
f 32 26 2
f 25 1 9
f 25 9 26
f 26 9 10
f 26 10 2
f 9 1 23
f 9 23 10
f 10 23 24
f 10 24 2
f 23 1 33
f 23 33 24
f 24 33 34
f 24 34 2
f 33 1 17
f 33 17 34
f 34 17 18
f 34 18 2
f 17 1 5
f 17 5 18
f 18 5 6
f 18 6 2
f 5 1 29
f 5 29 6
f 6 29 30
f 6 30 2
f 29 1 13
f 29 13 30
f 30 13 14
f 30 14 2
f 13 1 19
f 13 19 14
f 14 19 20
f 14 20 2
f 19 1 7
f 19 7 20
f 20 7 8
f 20 8 2
f 50 36 44
f 50 44 49
f 49 44 43
f 49 43 35
f 44 36 46
f 44 46 43
f 43 46 45
f 43 45 35
f 46 36 56
f 46 56 45
f 45 56 55
f 45 55 35
f 56 36 38
f 56 38 55
f 55 38 37
f 55 37 35
f 38 36 52
f 38 52 37
f 37 52 51
f 37 51 35
f 52 36 62
f 52 62 51
f 51 62 61
f 51 61 35
f 62 36 68
f 62 68 61
f 61 68 67
f 61 67 35
f 68 36 60
f 68 60 67
f 67 60 59
f 67 59 35
f 60 36 66
f 60 66 59
f 59 66 65
f 59 65 35
f 66 36 64
f 66 64 65
f 65 64 63
f 65 63 35
f 64 36 54
f 64 54 63
f 63 54 53
f 63 53 35
f 54 36 40
f 54 40 53
f 53 40 39
f 53 39 35
f 40 36 58
f 40 58 39
f 39 58 57
f 39 57 35
f 58 36 48
f 58 48 57
f 57 48 47
f 57 47 35
f 48 36 42
f 48 42 47
f 47 42 41
f 47 41 35
f 42 36 50
f 42 50 41
f 41 50 49
f 41 49 35
f 97 69 93
f 97 93 98
f 98 93 94
f 98 94 70
f 93 69 75
f 93 75 94
f 94 75 76
f 94 76 70
f 75 69 87
f 75 87 76
f 76 87 88
f 76 88 70
f 87 69 73
f 87 73 88
f 88 73 74
f 88 74 70
f 73 69 91
f 73 91 74
f 74 91 92
f 74 92 70
f 91 69 99
f 91 99 92
f 92 99 100
f 92 100 70
f 99 69 81
f 99 81 100
f 100 81 82
f 100 82 70
f 81 69 79
f 81 79 82
f 82 79 80
f 82 80 70
f 79 69 83
f 79 83 80
f 80 83 84
f 80 84 70
f 83 69 101
f 83 101 84
f 84 101 102
f 84 102 70
f 101 69 89
f 101 89 102
f 102 89 90
f 102 90 70
f 89 69 71
f 89 71 90
f 90 71 72
f 90 72 70
f 71 69 85
f 71 85 72
f 72 85 86
f 72 86 70
f 85 69 77
f 85 77 86
f 86 77 78
f 86 78 70
f 77 69 95
f 77 95 78
f 78 95 96
f 78 96 70
f 95 69 97
f 95 97 96
f 96 97 98
f 96 98 70
f 104 106 103
f 107 104 103
f 103 106 105
f 105 107 103
f 104 110 106
f 108 104 107
f 108 110 104
f 106 110 105
f 109 107 105
f 105 110 109
f 109 108 107
f 110 108 109